HIERARCHY
ROOT HipCenter
{
    OFFSET 0.0 0.0 -0.0
    CHANNELS 6 Xposition Yposition Zposition Zrotation Xrotation Yrotation
    JOINT Spine
    {
        OFFSET 0.0 0.11783101409673691 0.0
        CHANNELS 3 Zrotation Xrotation Yrotation
        JOINT ShoulderCenter
        {
            OFFSET 0.0 0.3146894574165344 0.0
            CHANNELS 3 Zrotation Xrotation Yrotation
            JOINT LeftShoulder
            {
                OFFSET 0.1694869101047516 0.0 0.0
                CHANNELS 3 Zrotation Xrotation Yrotation
                JOINT LeftElbow
                {
                    OFFSET 0.24582691490650177 0.0 0.0
                    CHANNELS 3 Zrotation Xrotation Yrotation
                    JOINT LeftWrist
                    {
                        OFFSET 0.2672960162162781 0.0 0.0
                        CHANNELS 3 Zrotation Xrotation Yrotation
                        JOINT LeftHand
                        {
                            OFFSET 0.03278522938489914 0.0 0.0
                            CHANNELS 3 Zrotation Xrotation Yrotation
                            End Site
                            {
                                OFFSET 0.013114092871546745 0.0 0.0
                            }
                        }
                    }
                }
            }
            JOINT RightShoulder
            {
                OFFSET -0.1694869101047516 0.0 0.0
                CHANNELS 3 Zrotation Xrotation Yrotation
                JOINT RightElbow
                {
                    OFFSET -0.24582691490650177 0.0 0.0
                    CHANNELS 3 Zrotation Xrotation Yrotation
                    JOINT RightWrist
                    {
                        OFFSET -0.2672960162162781 0.0 0.0
                        CHANNELS 3 Zrotation Xrotation Yrotation
                        JOINT RightHand
                        {
                            OFFSET -0.03278522938489914 0.0 0.0
                            CHANNELS 3 Zrotation Xrotation Yrotation
                            End Site
                            {
                                OFFSET -0.013114092871546745 0.0 0.0
                            }
                        }
                    }
                }
            }
            End Site
            {
                OFFSET 0.0 0.12587577104568481 0.0
            }
        }
    }
    JOINT LeftHip
    {
        OFFSET 0.1233789324760437 0.0 0.0
        CHANNELS 3 Zrotation Xrotation Yrotation
        JOINT LeftKnee
        {
            OFFSET 0.0 -0.36664825677871704 0.0
            CHANNELS 3 Zrotation Xrotation Yrotation
            JOINT LeftAnkle
            {
                OFFSET 0.0 -0.3812258243560791 0.0
                CHANNELS 3 Zrotation Xrotation Yrotation
                JOINT LeftFoot
                {
                    OFFSET 0.0 -0.11607472598552704 0.0
                    CHANNELS 3 Zrotation Xrotation Yrotation
                    End Site
                    {
                        OFFSET 0.0 0.0 0.04642988741397858
                    }
                }
            }
        }
    }
    JOINT RightHip
    {
        OFFSET -0.1233789324760437 0.0 0.0
        CHANNELS 3 Zrotation Xrotation Yrotation
        JOINT RightKnee
        {
            OFFSET 0.0 -0.36664825677871704 0.0
            CHANNELS 3 Zrotation Xrotation Yrotation
            JOINT RightAnkle
            {
                OFFSET 0.0 -0.3812258243560791 0.0
                CHANNELS 3 Zrotation Xrotation Yrotation
                JOINT RightFoot
                {
                    OFFSET 0.0 -0.11607472598552704 0.0
                    CHANNELS 3 Zrotation Xrotation Yrotation
                    End Site
                    {
                        OFFSET 0.0 0.0 0.04642988741397858
                    }
                }
            }
        }
    }
}
MOTION
Frames: 5
Frame Time: 0.03333333333333333
0.4869999885559082 -0.017999999225139618 -1.5390000343322754 2.8821016521628015e-07 77.2603656030398 -9.07832100010333 4.879011585374454 6.755478455150078 0.3256995920101109 2.472812304162098e-07 -3.2008564439196006e-06 -1.4481316204320962 101.7855714321572 -7.101724802914064 -171.4576425653766 3.5557685297823162e-06 -2.4506853490174474e-06 42.449266338662696 179.99999938948713 -3.9543834802253346 -134.59616560345378 -6.3611093629270335e-15 6.3611093629270335e-15 3.531125038440127e-31 -114.27666031963064 9.091804526001473 177.7133681654374 1.52150711149307e-06 2.6151059478300845e-06 -38.65211388603042 2.2659815211473373e-06 -51.84310693884193 -31.443147010495842 -1.9878466759146976e-15 3.975693351829395e-15 3.1805546814635164e-15 25.58177173139968 -66.96453609034587 45.891256202972706 8.883209197517024 14.99194904352324 -26.957338396856812 29.025107464070356 -53.415355700942854 88.07371977195126 -3.578124016646457e-15 6.7586786981099735e-15 -5.565970692561154e-15 31.57623455222085 -67.47004183518838 -1.7491127804919584 -10.085156733978652 15.18911323789491 17.785073059945343 166.5314220789279 -55.3751712899012 123.04762648626573 4.770832022195275e-15 -6.3611093629270335e-15 3.1805546814635168e-15
0.492000013589859 -0.1469999998807907 -1.6080000400543213 2.121101008452032 62.76791923929216 -9.918425678192309 5.134772957708034 5.163018631451959 -1.0090269598512231 1.2983618332547154e-07 -5.330216886963218e-07 0.4689945294121739 104.6082593409096 -9.235438538881164 -170.94954564270583 -5.50620891283862e-06 2.1802410901618096e-06 42.259382118614816 179.99999983552817 -2.4482369033245055 -131.32682028477893 0.0 1.5902773407317584e-15 0.0 -115.58271918709626 16.99503754032202 175.98271123663267 3.3625177907095267e-07 2.236355732210382e-07 -36.54937449736066 1.7529643570271281e-06 -52.83164777354319 -38.44984017595115 -7.951386703658791e-16 -1.987846675914698e-16 1.5902773407317582e-15 28.419187706392023 -68.45025968789439 68.368920909805 38.67256223023119 27.304336247024278 -101.70999359839396 122.22419875493469 -43.50206209000624 -176.95024700978368 0.0 0.0 0.0 31.546305485515717 -64.35419476864006 13.60055676667648 -17.244978454536522 33.338278747461224 35.77212252263377 -139.28120366146706 -72.0589763657543 179.1379879357839 -3.1805546814635168e-15 6.3611093629270335e-15 3.1805546814635168e-15
0.4860000014305115 -0.22499999403953552 -1.6749999523162842 -0.8550866160086636 55.363346549542555 -6.530398982710393 5.67588531527562 4.054744718096919 -0.6576339352606895 -2.2681339332954852e-07 -1.0710836930148445e-06 0.5577250306001752 109.40144509001101 -7.378872819738541 -162.12784373196098 8.698437698861363e-06 1.5337426807382388e-06 38.540558412733525 179.9999956248529 3.0892134476256756 -139.00128012343467 6.3611093629270335e-15 -1.5902773407317584e-15 8.827812596100317e-32 -107.48945029882405 22.169498951837046 167.43432348756434 2.998799063680116e-06 -8.249910987068254e-07 -34.36951478780607 -3.742435392468548e-06 -47.471665652082145 -41.466587139131555 -1.2408511672311278e-15 -7.130267715588763e-33 6.584742113967437e-16 40.5616315974127 -76.70813548807601 87.47990787823039 68.59910052730434 29.570916298764523 -134.20860869396915 126.3698083762223 -35.12533073671492 178.85209003478263 -6.3611093629270335e-15 0.0 0.0 52.25510425334448 -71.17621857161595 22.203733465802262 -46.12669748442428 52.1731231355769 71.10922049687952 -91.00926211822089 -58.095798609733784 -131.91442847861046 0.0 0.0 -2.3854160110976384e-15
0.4749999940395355 -0.23899999260902405 -1.7350000143051147 -2.419501850530201 52.910966284611064 -4.296761411009374 5.512028440404215 4.8430753429451405 -0.7448226019916607 -6.13184664809952e-08 9.503452289115103e-07 2.127994107897874 127.34694797876297 -14.99694366882171 -167.39916858542625 6.437846706204358e-06 -1.1527607790024089e-06 54.33175605422256 -179.99999821013196 14.720632834361917 -122.61700973918295 4.4139062980501586e-32 1.5902773407317582e-15 -3.1805546814635164e-15 -105.64277151630442 9.404700270429235 165.58882114899615 -7.615371946517824e-07 1.561023970058444e-06 -39.72556371194384 -3.591960514581053e-06 -51.386703460478095 -37.62647345069069 2.3854160110976376e-15 2.4828222926532145e-32 1.1927080055488188e-15 101.85296546337193 -81.4729620056064 153.03187547073307 85.88915760424675 34.36812442437963 -141.75785485021723 107.99186833908442 -26.993996730280994 165.3944310742508 -3.1805546814635168e-15 6.3611093629270335e-15 1.5902773407317584e-15 74.87794410783304 -75.90541009820444 41.66151884763202 -57.39777245210751 57.89850491946911 83.7103828292302 -85.47352063868648 -53.17860126601145 -122.94593723837612 0.0 0.0 1.9878466759146984e-15
0.4620000123977661 -0.21400000154972076 -1.7790000438690186 -4.698667989344862 51.47481758137145 -3.804498580518586 6.516845985023682 5.063852962776183 -0.7147554046307982 8.822654887713306e-07 -4.629654238234165e-06 5.652584008122096 115.42429690660494 -12.001186351157726 -166.58901228329532 -5.1627284637128495e-06 -1.8325102059267316e-06 51.180706708909156 -179.99999991680502 -9.689378664778355 -129.3820426056855 1.8207363479456905e-31 -6.5598940305185035e-15 3.1805546814635168e-15 -103.60196254493461 -2.261153830810081 166.0636785498948 -2.0713965061394864e-06 1.8622643361492215e-06 -47.978427989651294 3.262998732782322e-06 -31.68483571409984 -35.70285461940982 -5.565970692561156e-15 -1.5902773407317588e-15 1.5902773407317588e-15 94.26784514889172 -75.54115261628927 148.2172485810775 78.95481215559819 33.43680344731708 -139.48893304565107 95.40093222618145 -28.17150597530997 158.34218713748268 -4.770832022195277e-15 -6.620859447075238e-32 1.5902773407317588e-15 68.4382396853153 -73.9830269625499 34.80827222499357 -44.17139911732357 56.87473689068438 68.34262910860015 -84.0705934965417 -59.71009885539089 -118.7037666468503 -3.089734408635111e-31 5.565970692561154e-15 6.3611093629270335e-15
